<svg width="680" height="240" viewBox="0 0 680 240" fill="none" xmlns="http://www.w3.org/2000/svg">
<path d="M317.752 102.272V100.48H336.632C342.093 100.48 346.275 102.08 349.176 105.28C352.12 108.48 353.592 113.451 353.592 120.192V124.224C353.592 130.965 352.12 135.957 349.176 139.2C346.275 142.4 342.093 144 336.632 144H317.752V142.208L321.272 141.76C321.955 141.675 322.36 141.504 322.488 141.248C322.616 140.949 322.68 140.075 322.68 138.624V105.856C322.68 104.405 322.616 103.552 322.488 103.296C322.36 102.997 321.955 102.805 321.272 102.72L317.752 102.272ZM336.312 102.72H330.36V141.76H336.312C338.488 141.76 340.237 141.397 341.56 140.672C342.883 139.904 343.843 138.496 344.44 136.448C345.08 134.357 345.4 131.349 345.4 127.424V116.992C345.4 113.067 345.08 110.08 344.44 108.032C343.843 105.984 342.883 104.597 341.56 103.872C340.237 103.104 338.488 102.72 336.312 102.72ZM395.573 142.208V144H383.669V138.368C382.474 140.544 380.938 142.144 379.061 143.168C377.183 144.149 375.285 144.64 373.365 144.64C370.335 144.64 367.925 143.637 366.133 141.632C364.341 139.584 363.445 136.747 363.445 133.12V116.928C363.445 115.477 363.381 114.624 363.253 114.368C363.125 114.069 362.719 113.877 362.036 113.792L358.517 113.344V111.552H370.805V133.056C370.805 136 371.21 138.155 372.021 139.52C372.874 140.843 374.09 141.504 375.669 141.504C376.351 141.504 377.141 141.333 378.037 140.992C378.975 140.608 379.914 139.947 380.853 139.008C381.791 138.027 382.602 136.64 383.285 134.848V116.928C383.285 115.477 383.221 114.603 383.093 114.304C382.965 114.005 382.559 113.835 381.877 113.792L377.077 113.344V111.552H390.645V138.624C390.645 140.075 390.709 140.949 390.837 141.248C390.965 141.504 391.37 141.675 392.053 141.76L395.573 142.208ZM413.969 113.152C411.921 113.152 410.385 114.133 409.361 116.096C408.38 118.016 407.889 121.259 407.889 125.824V129.664C407.889 134.187 408.465 137.451 409.617 139.456C410.769 141.419 412.646 142.4 415.249 142.4C417.169 142.4 418.726 141.867 419.921 140.8C421.158 139.691 421.862 137.835 422.033 135.232L426.129 136.384C425.361 139.371 423.953 141.504 421.905 142.784C419.9 144.021 417.532 144.64 414.801 144.64C409.894 144.64 406.204 143.168 403.729 140.224C401.254 137.237 400.017 133.291 400.017 128.384V127.104C400.017 122.197 401.212 118.272 403.601 115.328C405.99 112.384 409.446 110.912 413.969 110.912C416.956 110.912 419.388 111.509 421.265 112.704C423.185 113.856 424.529 115.392 425.297 117.312C426.108 119.189 426.321 121.216 425.937 123.392L418.897 124.416C419.366 120.832 419.174 118.059 418.321 116.096C417.468 114.133 416.017 113.152 413.969 113.152ZM429.837 98.432V96.64H442.125V127.68L453.389 116.928C454.882 115.52 455.671 114.667 455.757 114.368C455.885 114.069 455.586 113.877 454.861 113.792L451.341 113.344V111.552H464.461V113.344L460.941 113.792C460.557 113.835 460.237 113.92 459.981 114.048C459.725 114.176 459.362 114.453 458.893 114.88C458.423 115.264 457.677 115.947 456.653 116.928L450.509 122.816L459.597 138.624C460.194 139.605 460.642 140.309 460.941 140.736C461.239 141.12 461.517 141.376 461.773 141.504C462.071 141.589 462.434 141.675 462.861 141.76L466.381 142.208V144H454.157L445.26 127.808L442.125 130.816V138.624C442.125 140.075 442.189 140.949 442.317 141.248C442.445 141.504 442.85 141.675 443.533 141.76L447.053 142.208V144H429.837V142.208L433.357 141.76C434.039 141.675 434.445 141.504 434.573 141.248C434.701 140.949 434.765 140.075 434.765 138.624V102.016C434.765 100.565 434.701 99.712 434.573 99.456C434.445 99.1573 434.039 98.9653 433.357 98.88L429.837 98.432Z" fill="black"/>
<ellipse cx="254" cy="140" rx="32" ry="12" fill="#C0E6FF"/>
<rect x="240" y="124" width="25" height="13" fill="white"/>
<path d="M238 116L240.5 115L240 113.5L239.5 112.5L239 111.5L238.5 111L238 110.5V110L237.5 109L236.5 109.5L235.5 110L235 110.5H233.5L232 110H231V111L232 113L233.5 115L238 116Z" fill="white"/>
<circle cx="243.5" cy="108.5" r="2.5" fill="white"/>
<path d="M252.352 119.709C254.446 118.361 258.157 116.223 258.303 110.781C258.417 106.488 256.192 100.3 247.896 100.009C241.23 99.7745 238.448 104.134 237.637 108.049L237.441 108.022C237.032 108.022 236.713 108.293 236.31 108.634C235.869 109.011 235.319 109.476 234.66 109.546C233.904 109.622 232.943 109.291 232.184 109.027C231.296 108.724 230.781 108.594 230.434 108.867C230.115 109.113 229.973 109.557 230.004 110.185C230.074 111.524 231.057 114.19 233.395 115.643C235.019 116.652 236.835 116.803 237.774 116.803C237.775 116.803 237.775 116.803 237.775 116.803C238.277 116.803 238.822 116.753 239.34 116.65C239.92 117.543 240.446 118.233 240.618 118.714C241.053 119.953 234.722 124.026 234.722 130.362C234.722 136.696 239.382 140.625 246.732 140.625H258.378C264.855 140.625 273.371 134.293 274.319 121.045C268.276 126.141 265.364 118.934 252.352 119.709ZM234.01 114.656C231.858 113.316 231.057 110.628 231.121 109.909C231.311 109.96 231.586 110.055 231.804 110.13C232.674 110.429 233.798 110.813 234.783 110.703C235.799 110.597 236.53 109.975 237.065 109.523C237.194 109.415 237.36 109.274 237.461 109.207C237.646 109.274 237.665 109.354 237.71 109.872C237.752 110.35 237.81 111.009 238.21 111.779C238.515 112.363 238.969 112.986 239.406 113.587C239.766 114.082 240.312 114.83 240.366 114.943C240.272 115.194 239.327 115.638 237.777 115.638C236.389 115.64 235.016 115.282 234.01 114.656ZM242.039 108.605C242.039 107.56 242.886 106.712 243.93 106.712C244.976 106.712 245.823 107.56 245.823 108.605C245.823 109.649 244.976 110.499 243.93 110.499C242.885 110.499 242.039 109.649 242.039 108.605ZM261.581 131.055L257.213 133.42L260.052 135.387C260.052 135.387 249.497 138.735 244.766 133.929C242.435 131.566 242.001 127.888 245.639 125.706C249.277 123.523 263.553 126.541 263.553 126.541L258.434 129.446L261.581 131.055Z" fill="black"/>
</svg>
