<svg width="512" height="512" viewBox="0 0 512 512" fill="none" xmlns="http://www.w3.org/2000/svg">
<path d="M257.115 252.845C269.209 245.057 290.646 232.709 291.488 201.276C292.144 176.476 279.294 140.73 231.372 139.052C192.869 137.697 176.798 162.881 172.115 185.492L170.98 185.338C168.617 185.338 166.776 186.903 164.45 188.871C161.901 191.053 158.722 193.737 154.92 194.14C150.55 194.581 145 192.665 140.613 191.145C135.485 189.395 132.512 188.641 130.505 190.216C128.667 191.639 127.842 194.206 128.025 197.831C128.43 205.567 134.105 220.966 147.613 229.357C156.993 235.185 167.484 236.062 172.905 236.062C172.913 236.062 172.913 236.062 172.913 236.062C175.811 236.062 178.96 235.769 181.948 235.174C185.3 240.332 188.342 244.317 189.331 247.1C191.843 254.256 155.273 277.782 155.273 314.377C155.273 350.965 182.195 373.662 224.65 373.662H291.92C329.335 373.662 378.525 337.085 384.001 260.56C349.095 289.999 332.275 248.367 257.115 252.845ZM151.165 223.657C138.732 215.918 134.106 200.392 134.475 196.237C135.572 196.531 137.158 197.08 138.423 197.512C143.443 199.242 149.939 201.459 155.628 200.822C161.497 200.212 165.721 196.619 168.809 194.005C169.552 193.383 170.513 192.567 171.099 192.182C172.163 192.567 172.275 193.029 172.537 196.022C172.777 198.786 173.116 202.589 175.426 207.036C177.183 210.413 179.805 214.013 182.331 217.483C184.411 220.34 187.563 224.663 187.877 225.315C187.333 226.763 181.876 229.329 172.921 229.329C164.907 229.339 156.973 227.276 151.165 223.657ZM197.54 188.707C197.54 182.668 202.433 177.77 208.463 177.77C214.506 177.77 219.399 182.668 219.399 188.707C219.399 194.738 214.506 199.643 208.463 199.643C202.425 199.645 197.54 194.738 197.54 188.707ZM310.421 318.382L285.191 332.041L301.589 343.406C301.589 343.406 240.618 362.746 213.291 334.986C199.831 321.338 197.319 300.09 218.335 287.485C239.351 274.873 321.811 292.307 321.811 292.307L292.243 309.089L310.421 318.382Z" fill="black"/>
</svg>
