<svg width="512" height="512" viewBox="0 0 512 512" fill="none" xmlns="http://www.w3.org/2000/svg">
<rect x="159" y="293" width="200" height="100" fill="white"/>
<path d="M143 221L163 213L159 201L155 193L151 185L147 181L143 177V173L139 165L131 169L123 173L119 177H107L95 173H87V181L95 197L107 213L143 221Z" fill="white"/>
<circle cx="187" cy="161" r="20" fill="white"/>
<path d="M257.82 250.672C274.57 239.885 304.259 222.785 305.426 179.25C306.334 144.903 288.537 95.3965 222.167 93.0726C168.842 91.1958 146.584 126.075 140.098 157.39L138.526 157.177C135.254 157.177 132.703 159.345 129.481 162.07C125.952 165.092 121.549 168.81 116.283 169.367C110.231 169.978 102.545 167.324 96.4691 165.219C89.3669 162.795 85.2492 161.752 82.4697 163.933C79.9239 165.903 78.7806 169.458 79.0346 174.479C79.5953 185.194 87.4546 206.521 106.163 218.142C119.154 226.213 133.684 227.427 141.192 227.427C141.203 227.427 141.203 227.427 141.203 227.427C145.217 227.427 149.579 227.023 153.717 226.198C158.359 233.342 162.572 238.861 163.942 242.716C167.421 252.626 116.773 285.208 116.773 335.892C116.773 386.565 154.059 418 212.858 418H306.024C357.843 418 425.97 367.341 433.553 261.356C385.21 302.13 361.915 244.471 257.82 250.672ZM111.083 210.247C93.864 199.529 87.4563 178.026 87.9678 172.272C89.4872 172.678 91.684 173.439 93.4354 174.037C100.389 176.434 109.384 179.504 117.264 178.622C125.393 177.777 131.243 172.8 135.52 169.181C136.548 168.318 137.879 167.189 138.691 166.655C140.164 167.189 140.32 167.829 140.683 171.974C141.015 175.802 141.484 181.07 144.683 187.228C147.117 191.905 150.749 196.891 154.247 201.697C157.128 205.654 161.493 211.641 161.928 212.544C161.174 214.549 153.617 218.103 141.215 218.103C130.115 218.117 119.127 215.259 111.083 210.247ZM175.311 161.843C175.311 153.479 182.088 146.695 190.438 146.695C198.808 146.695 205.584 153.479 205.584 161.843C205.584 170.195 198.808 176.989 190.438 176.989C182.076 176.991 175.311 170.195 175.311 161.843ZM331.648 341.438L296.705 360.356L319.415 376.097C319.415 376.097 234.972 402.881 197.126 364.435C178.483 345.532 175.004 316.105 204.111 298.647C233.217 281.181 347.423 305.326 347.423 305.326L306.471 328.568L331.648 341.438Z" fill="black"/>
</svg>
