<svg width="680" height="240" viewBox="0 0 680 240" fill="none" xmlns="http://www.w3.org/2000/svg">
<g filter="url(#filter0_d_1_5)">
<rect x="190" y="120" width="45.2548" height="45.2548" transform="rotate(-45 190 120)" fill="black"/>
<rect x="197.955" y="119.955" width="33.9411" height="33.9411" transform="rotate(-45 197.955 119.955)" fill="white"/>
<rect x="206.971" y="119.971" width="21.2132" height="21.2132" transform="rotate(-45 206.971 119.971)" fill="black"/>
<rect x="230.482" y="143.376" width="10.6066" height="4.24264" transform="rotate(-45 230.482 143.376)" fill="black"/>
</g>
<g filter="url(#filter1_d_1_5)">
<path d="M309.031 140.625C304.906 140.625 301.198 139.688 297.906 137.812C294.615 135.938 292.01 133.219 290.094 129.656C288.177 126.094 287.219 121.792 287.219 116.75C287.219 111.667 288.177 107.344 290.094 103.781C292.01 100.219 294.615 97.5 297.906 95.625C301.198 93.75 304.906 92.8125 309.031 92.8125C313.156 92.8125 316.854 93.75 320.125 95.625C323.417 97.5 326.021 100.219 327.938 103.781C329.854 107.344 330.812 111.667 330.812 116.75C330.812 120.896 330.156 124.542 328.844 127.688C327.531 130.833 325.729 133.427 323.438 135.469L330.125 143.812H320.938L317.188 139.219C314.667 140.156 311.948 140.625 309.031 140.625ZM297.188 116.75C297.188 121.667 298.26 125.427 300.406 128.031C302.573 130.635 305.448 131.938 309.031 131.938C309.927 131.938 310.781 131.854 311.594 131.688L305.625 123.812H314L317.438 128.25C318.521 126.958 319.354 125.354 319.938 123.438C320.542 121.5 320.844 119.271 320.844 116.75C320.844 111.812 319.76 108.042 317.594 105.438C315.448 102.812 312.594 101.5 309.031 101.5C305.448 101.5 302.573 102.812 300.406 105.438C298.26 108.042 297.188 111.812 297.188 116.75ZM360.312 125.156V105.062H370V140H360.688V133.656H360.312C359.542 135.698 358.24 137.344 356.406 138.594C354.594 139.844 352.375 140.458 349.75 140.438C346.229 140.458 343.375 139.302 341.188 136.969C339.021 134.615 337.938 131.396 337.938 127.312V105.062H347.625V125.625C347.625 127.667 348.177 129.292 349.281 130.5C350.385 131.688 351.854 132.271 353.688 132.25C355.417 132.271 356.948 131.677 358.281 130.469C359.635 129.26 360.312 127.49 360.312 125.156ZM393.656 140.688C390.073 140.688 386.99 139.958 384.406 138.5C381.823 137.042 379.833 134.969 378.438 132.281C377.042 129.573 376.344 126.375 376.344 122.688C376.344 119.104 377.031 115.958 378.406 113.25C379.802 110.542 381.76 108.427 384.281 106.906C386.802 105.385 389.771 104.625 393.188 104.625C396.271 104.625 399.052 105.281 401.531 106.594C404.031 107.906 406.01 109.875 407.469 112.5C408.948 115.125 409.688 118.417 409.688 122.375V125H385.875C385.979 127.646 386.75 129.719 388.188 131.219C389.625 132.719 391.5 133.469 393.812 133.469C395.417 133.469 396.792 133.125 397.938 132.438C399.104 131.75 399.938 130.75 400.438 129.438L409.375 130.031C408.688 133.24 406.969 135.823 404.219 137.781C401.49 139.719 397.969 140.688 393.656 140.688ZM385.938 119.031H400.406C400.177 116.823 399.469 115.073 398.281 113.781C397.094 112.49 395.427 111.844 393.281 111.844C391.115 111.844 389.396 112.521 388.125 113.875C386.875 115.208 386.146 116.927 385.938 119.031ZM445.062 115.031L436.25 115.562C436 114.458 435.375 113.51 434.375 112.719C433.396 111.906 432.062 111.5 430.375 111.5C428.875 111.5 427.615 111.812 426.594 112.438C425.573 113.062 425.062 113.896 425.062 114.938C425.062 115.771 425.396 116.479 426.062 117.062C426.729 117.646 427.865 118.115 429.469 118.469L435.812 119.719C442.521 121.052 445.875 124.198 445.875 129.156C445.875 131.469 445.208 133.49 443.875 135.219C442.542 136.948 440.708 138.292 438.375 139.25C436.042 140.208 433.365 140.688 430.344 140.688C425.719 140.688 422.042 139.729 419.312 137.812C416.583 135.875 414.979 133.24 414.5 129.906L424 129.406C424.646 132.281 426.771 133.719 430.375 133.719C432.062 133.719 433.427 133.385 434.469 132.719C435.51 132.052 436.031 131.208 436.031 130.188C436.031 128.458 434.542 127.292 431.562 126.688L425.531 125.438C418.802 124.083 415.438 120.771 415.438 115.5C415.438 112.125 416.781 109.469 419.469 107.531C422.177 105.594 425.76 104.625 430.219 104.625C434.635 104.625 438.115 105.562 440.656 107.438C443.198 109.292 444.667 111.823 445.062 115.031ZM470.562 105.062V112.375H463.938V129.25C463.938 131.521 465.042 132.656 467.25 132.656C467.625 132.656 468.031 132.625 468.469 132.562C468.927 132.5 469.323 132.427 469.656 132.344L471.188 139.594C469.125 140.198 467.125 140.5 465.188 140.5C461.729 140.5 459.042 139.625 457.125 137.875C455.229 136.125 454.281 133.677 454.281 130.531V112.375H449.531V105.062H454.281V96.75H463.938V105.062H470.562Z" fill="black"/>
</g>
<defs>
<filter id="filter0_d_1_5" x="180" y="88" width="84" height="84" filterUnits="userSpaceOnUse" color-interpolation-filters="sRGB">
<feFlood flood-opacity="0" result="BackgroundImageFix"/>
<feColorMatrix in="SourceAlpha" type="matrix" values="0 0 0 0 0 0 0 0 0 0 0 0 0 0 0 0 0 0 127 0" result="hardAlpha"/>
<feOffset dy="10"/>
<feGaussianBlur stdDeviation="5"/>
<feComposite in2="hardAlpha" operator="out"/>
<feColorMatrix type="matrix" values="0 0 0 0 0 0 0 0 0 0 0 0 0 0 0 0 0 0 0.25 0"/>
<feBlend mode="normal" in2="BackgroundImageFix" result="effect1_dropShadow_1_5"/>
<feBlend mode="normal" in="SourceGraphic" in2="effect1_dropShadow_1_5" result="shape"/>
</filter>
<filter id="filter1_d_1_5" x="277.219" y="92.8125" width="203.969" height="71" filterUnits="userSpaceOnUse" color-interpolation-filters="sRGB">
<feFlood flood-opacity="0" result="BackgroundImageFix"/>
<feColorMatrix in="SourceAlpha" type="matrix" values="0 0 0 0 0 0 0 0 0 0 0 0 0 0 0 0 0 0 127 0" result="hardAlpha"/>
<feOffset dy="10"/>
<feGaussianBlur stdDeviation="5"/>
<feComposite in2="hardAlpha" operator="out"/>
<feColorMatrix type="matrix" values="0 0 0 0 0 0 0 0 0 0 0 0 0 0 0 0 0 0 0.25 0"/>
<feBlend mode="normal" in2="BackgroundImageFix" result="effect1_dropShadow_1_5"/>
<feBlend mode="normal" in="SourceGraphic" in2="effect1_dropShadow_1_5" result="shape"/>
</filter>
</defs>
</svg>
